<svg width="214" height="214" viewBox="0 0 214 214" fill="none" xmlns="http://www.w3.org/2000/svg">
<circle cx="4.27619" cy="4.27619" r="4.27619" fill="#00FF84" fill-opacity="0.2"/>
<circle cx="29.9345" cy="4.27668" r="4.27619" fill="#00FF84" fill-opacity="0.2"/>
<circle cx="55.5913" cy="4.27668" r="4.27619" fill="#00FF84" fill-opacity="0.2"/>
<circle cx="81.2491" cy="4.27668" r="4.27619" fill="#00FF84" fill-opacity="0.2"/>
<circle cx="106.906" cy="4.27668" r="4.27619" fill="#00FF84" fill-opacity="0.2"/>
<circle cx="132.563" cy="4.27668" r="4.27619" fill="#00FF84" fill-opacity="0.2"/>
<circle cx="158.219" cy="4.27668" r="4.27619" fill="#00FF84" fill-opacity="0.2"/>
<circle cx="183.879" cy="4.27668" r="4.27619" fill="#00FF84" fill-opacity="0.2"/>
<circle cx="209.535" cy="4.27668" r="4.27619" fill="#00FF84" fill-opacity="0.2"/>
<circle cx="4.27668" cy="29.9351" r="4.27619" fill="#00FF84" fill-opacity="0.2"/>
<circle cx="4.27668" cy="55.5914" r="4.27619" fill="#00FF84" fill-opacity="0.2"/>
<circle cx="4.27668" cy="81.2484" r="4.27619" fill="#00FF84" fill-opacity="0.2"/>
<circle cx="4.27668" cy="106.904" r="4.27619" fill="#00FF84" fill-opacity="0.2"/>
<circle cx="4.27668" cy="132.562" r="4.27619" fill="#00FF84" fill-opacity="0.2"/>
<circle cx="4.27668" cy="158.221" r="4.27619" fill="#00FF84" fill-opacity="0.2"/>
<circle cx="4.27668" cy="183.877" r="4.27619" fill="#00FF84" fill-opacity="0.2"/>
<circle cx="4.27668" cy="209.534" r="4.27619" fill="#00FF84" fill-opacity="0.2"/>
<circle cx="29.9345" cy="29.9351" r="4.27619" fill="#00FF84" fill-opacity="0.2"/>
<circle cx="29.9345" cy="55.5914" r="4.27619" fill="#00FF84" fill-opacity="0.2"/>
<circle cx="29.9345" cy="81.2484" r="4.27619" fill="#00FF84" fill-opacity="0.2"/>
<circle cx="29.9345" cy="106.904" r="4.27619" fill="#00FF84" fill-opacity="0.2"/>
<circle cx="29.9345" cy="132.562" r="4.27619" fill="#00FF84" fill-opacity="0.2"/>
<circle cx="29.9345" cy="158.221" r="4.27619" fill="#00FF84" fill-opacity="0.2"/>
<circle cx="29.9345" cy="183.877" r="4.27619" fill="#00FF84" fill-opacity="0.2"/>
<circle cx="29.9345" cy="209.534" r="4.27619" fill="#00FF84" fill-opacity="0.2"/>
<circle cx="55.5913" cy="29.9351" r="4.27619" fill="#00FF84" fill-opacity="0.2"/>
<circle cx="55.5913" cy="55.5914" r="4.27619" fill="#00FF84" fill-opacity="0.2"/>
<circle cx="55.5913" cy="81.2484" r="4.27619" fill="#00FF84" fill-opacity="0.2"/>
<circle cx="55.5913" cy="106.904" r="4.27619" fill="#00FF84" fill-opacity="0.2"/>
<circle cx="55.5913" cy="132.562" r="4.27619" fill="#00FF84" fill-opacity="0.2"/>
<circle cx="55.5913" cy="158.221" r="4.27619" fill="#00FF84" fill-opacity="0.2"/>
<circle cx="55.5913" cy="183.877" r="4.27619" fill="#00FF84" fill-opacity="0.2"/>
<circle cx="55.5913" cy="209.534" r="4.27619" fill="#00FF84" fill-opacity="0.2"/>
<circle cx="81.2491" cy="29.9351" r="4.27619" fill="#00FF84" fill-opacity="0.2"/>
<circle cx="81.2491" cy="55.5914" r="4.27619" fill="#00FF84" fill-opacity="0.2"/>
<circle cx="81.2491" cy="81.2484" r="4.27619" fill="#00FF84" fill-opacity="0.2"/>
<circle cx="81.2491" cy="106.904" r="4.27619" fill="#00FF84" fill-opacity="0.2"/>
<circle cx="81.2491" cy="132.562" r="4.27619" fill="#00FF84" fill-opacity="0.2"/>
<circle cx="81.2491" cy="158.221" r="4.27619" fill="#00FF84" fill-opacity="0.2"/>
<circle cx="81.2491" cy="183.877" r="4.27619" fill="#00FF84" fill-opacity="0.2"/>
<circle cx="81.2491" cy="209.534" r="4.27619" fill="#00FF84" fill-opacity="0.2"/>
<circle cx="106.906" cy="29.9351" r="4.27619" fill="#00FF84" fill-opacity="0.2"/>
<circle cx="106.906" cy="55.5914" r="4.27619" fill="#00FF84" fill-opacity="0.2"/>
<circle cx="106.906" cy="81.2484" r="4.27619" fill="#00FF84" fill-opacity="0.2"/>
<circle cx="106.906" cy="106.904" r="4.27619" fill="#00FF84" fill-opacity="0.2"/>
<circle cx="106.906" cy="132.562" r="4.27619" fill="#00FF84" fill-opacity="0.2"/>
<circle cx="106.906" cy="158.221" r="4.27619" fill="#00FF84" fill-opacity="0.2"/>
<circle cx="106.906" cy="183.877" r="4.27619" fill="#00FF84" fill-opacity="0.2"/>
<circle cx="106.906" cy="209.534" r="4.27619" fill="#00FF84" fill-opacity="0.2"/>
<circle cx="132.563" cy="29.9351" r="4.27619" fill="#00FF84" fill-opacity="0.2"/>
<circle cx="132.563" cy="55.5914" r="4.27619" fill="#00FF84" fill-opacity="0.2"/>
<circle cx="132.563" cy="81.2484" r="4.27619" fill="#00FF84" fill-opacity="0.2"/>
<circle cx="132.563" cy="106.904" r="4.27619" fill="#00FF84" fill-opacity="0.2"/>
<circle cx="132.563" cy="132.562" r="4.27619" fill="#00FF84" fill-opacity="0.2"/>
<circle cx="132.563" cy="158.221" r="4.27619" fill="#00FF84" fill-opacity="0.2"/>
<circle cx="132.563" cy="183.877" r="4.27619" fill="#00FF84" fill-opacity="0.2"/>
<circle cx="132.563" cy="209.534" r="4.27619" fill="#00FF84" fill-opacity="0.2"/>
<circle cx="158.219" cy="29.9351" r="4.27619" fill="#00FF84" fill-opacity="0.2"/>
<circle cx="158.219" cy="55.5914" r="4.27619" fill="#00FF84" fill-opacity="0.2"/>
<circle cx="158.219" cy="81.2484" r="4.27619" fill="#00FF84" fill-opacity="0.2"/>
<circle cx="158.219" cy="106.904" r="4.27619" fill="#00FF84" fill-opacity="0.2"/>
<circle cx="158.219" cy="132.562" r="4.27619" fill="#00FF84" fill-opacity="0.2"/>
<circle cx="158.219" cy="158.221" r="4.27619" fill="#00FF84" fill-opacity="0.2"/>
<circle cx="158.219" cy="183.877" r="4.27619" fill="#00FF84" fill-opacity="0.2"/>
<circle cx="158.219" cy="209.534" r="4.27619" fill="#00FF84" fill-opacity="0.2"/>
<circle cx="183.879" cy="29.9351" r="4.27619" fill="#00FF84" fill-opacity="0.2"/>
<circle cx="183.879" cy="55.5914" r="4.27619" fill="#00FF84" fill-opacity="0.2"/>
<circle cx="183.879" cy="81.2484" r="4.27619" fill="#00FF84" fill-opacity="0.2"/>
<circle cx="183.879" cy="106.904" r="4.27619" fill="#00FF84" fill-opacity="0.2"/>
<circle cx="183.879" cy="132.562" r="4.27619" fill="#00FF84" fill-opacity="0.2"/>
<circle cx="183.879" cy="158.221" r="4.27619" fill="#00FF84" fill-opacity="0.2"/>
<circle cx="183.879" cy="183.877" r="4.27619" fill="#00FF84" fill-opacity="0.2"/>
<circle cx="183.879" cy="209.534" r="4.27619" fill="#00FF84" fill-opacity="0.2"/>
<circle cx="209.535" cy="29.9351" r="4.27619" fill="#00FF84" fill-opacity="0.2"/>
<circle cx="209.535" cy="55.5914" r="4.27619" fill="#00FF84" fill-opacity="0.2"/>
<circle cx="209.535" cy="81.2484" r="4.27619" fill="#00FF84" fill-opacity="0.2"/>
<circle cx="209.535" cy="106.904" r="4.27619" fill="#00FF84" fill-opacity="0.2"/>
<circle cx="209.535" cy="132.562" r="4.27619" fill="#00FF84" fill-opacity="0.2"/>
<circle cx="209.535" cy="158.221" r="4.27619" fill="#00FF84" fill-opacity="0.2"/>
<circle cx="209.535" cy="183.877" r="4.27619" fill="#00FF84" fill-opacity="0.2"/>
<circle cx="209.535" cy="209.534" r="4.27619" fill="#00FF84" fill-opacity="0.2"/>
</svg>
